M48
METRIC,LZ,000.000
;FILE_FORMAT=3:3
;TYPE=PLATED
;Layer: PTH_Through
;EasyEDA v6.5.47, 2024-10-06 10:13:02
;ffcbb33f17924234841025c486cc4069,e014b3835f5d4d88964e6d66dd9d747e,10
;Gerber Generator version 0.2
;Holesize 1 = 0.701 mm
T01C0.701
;Holesize 2 = 0.915 mm
T02C0.915
;Holesize 3 = 1.000 mm
T03C1.000
;Holesize 4 = 1.143 mm
T04C1.143
;Holesize 5 = 1.200 mm
T05C1.200
%
G05
G90
T01
X037338Y064441G85X037338Y064591
X038608Y064441G85X038608Y064591
X039878Y064441G85X039878Y064591
X043942Y064441G85X043942Y064591
X045212Y064441G85X045212Y064591
X046482Y064441G85X046482Y064591
T02
X043648Y035687
X041148Y035687
X038648Y035687
T03
X036798Y045466
X045498Y045466
X036925Y040767
X045625Y040767
X031877Y039116G85X031877Y039116
X009017Y039116G85X009017Y039116
X031877Y056896G85X031877Y056896
X031877Y054356G85X031877Y054356
X031877Y051816G85X031877Y051816
X031877Y049276G85X031877Y049276
X031877Y046736G85X031877Y046736
X031877Y044196G85X031877Y044196
X031877Y041656G85X031877Y041656
X009017Y056896G85X009017Y056896
X009017Y054356G85X009017Y054356
X009017Y051816G85X009017Y051816
X009017Y049276G85X009017Y049276
X009017Y046736G85X009017Y046736
X009017Y044196G85X009017Y044196
X009017Y041656G85X009017Y041656
X035871Y049657
X046171Y049657
X036252Y058166
X046552Y058166
X035998Y053975
X046298Y053975
T04
X009045Y081549
X009045Y067549
X031849Y081549
X031849Y067549
X031849Y079018
X031849Y070089
T05
X036576Y071374
X039116Y071374
X043180Y071374
X045720Y071374
M30
