G04 Layer: TopSilkscreenLayer*
G04 EasyEDA v6.5.47, 2024-10-06 10:13:02*
G04 ffcbb33f17924234841025c486cc4069,e014b3835f5d4d88964e6d66dd9d747e,10*
G04 Gerber Generator version 0.2*
G04 Scale: 100 percent, Rotated: No, Reflected: No *
G04 Dimensions in millimeters *
G04 leading zeros omitted , absolute positions ,4 integer and 5 decimal *
%FSLAX45Y45*%
%MOMM*%

%ADD10C,0.1524*%
%ADD11C,0.1219*%
%ADD12C,0.1422*%
%ADD13C,0.0813*%
%ADD14C,0.1016*%
%ADD15C,0.2032*%
%ADD16C,0.2540*%
%ADD17C,0.2030*%
%ADD18C,0.1520*%
%ADD19C,0.1270*%
%ADD20C,0.0159*%

%LPD*%
D10*
X4099306Y4852415D02*
G01*
X4099306Y4743450D01*
X4099306Y4852415D02*
G01*
X4135627Y4852415D01*
X4151375Y4847336D01*
X4161536Y4836921D01*
X4166870Y4826507D01*
X4171950Y4810760D01*
X4171950Y4784852D01*
X4166870Y4769357D01*
X4161536Y4758944D01*
X4151375Y4748529D01*
X4135627Y4743450D01*
X4099306Y4743450D01*
X4206240Y4831587D02*
G01*
X4216654Y4836921D01*
X4232402Y4852415D01*
X4232402Y4743450D01*
X4112006Y4382515D02*
G01*
X4112006Y4273550D01*
X4112006Y4382515D02*
G01*
X4148327Y4382515D01*
X4164075Y4377436D01*
X4174236Y4367021D01*
X4179570Y4356607D01*
X4184650Y4340860D01*
X4184650Y4314952D01*
X4179570Y4299457D01*
X4174236Y4289044D01*
X4164075Y4278629D01*
X4148327Y4273550D01*
X4112006Y4273550D01*
X4224274Y4356607D02*
G01*
X4224274Y4361687D01*
X4229354Y4372102D01*
X4234688Y4377436D01*
X4245102Y4382515D01*
X4265675Y4382515D01*
X4276090Y4377436D01*
X4281424Y4372102D01*
X4286504Y4361687D01*
X4286504Y4351273D01*
X4281424Y4340860D01*
X4271009Y4325365D01*
X4218940Y4273550D01*
X4291838Y4273550D01*
X3789197Y7861274D02*
G01*
X3898163Y7861274D01*
X3789197Y7861274D02*
G01*
X3789197Y7908010D01*
X3794277Y7923758D01*
X3799611Y7928838D01*
X3810025Y7933918D01*
X3820439Y7933918D01*
X3830853Y7928838D01*
X3835933Y7923758D01*
X3841013Y7908010D01*
X3841013Y7861274D02*
G01*
X3841013Y7908010D01*
X3846347Y7923758D01*
X3851427Y7928838D01*
X3861841Y7933918D01*
X3877589Y7933918D01*
X3888003Y7928838D01*
X3893083Y7923758D01*
X3898163Y7908010D01*
X3898163Y7861274D01*
X3789197Y8009864D02*
G01*
X3898163Y7968208D01*
X3789197Y8009864D02*
G01*
X3898163Y8051520D01*
X3861841Y7983956D02*
G01*
X3861841Y8035772D01*
X3789197Y8122132D02*
G01*
X3898163Y8122132D01*
X3789197Y8085810D02*
G01*
X3789197Y8158454D01*
X3789197Y8229066D02*
G01*
X3898163Y8229066D01*
X3789197Y8192744D02*
G01*
X3789197Y8265388D01*
X3771900Y7392415D02*
G01*
X3771900Y7283450D01*
X3844543Y7392415D02*
G01*
X3844543Y7283450D01*
X3771900Y7340600D02*
G01*
X3844543Y7340600D01*
X3878834Y7371587D02*
G01*
X3889247Y7376921D01*
X3904995Y7392415D01*
X3904995Y7283450D01*
X4432300Y7392415D02*
G01*
X4432300Y7283450D01*
X4504943Y7392415D02*
G01*
X4504943Y7283450D01*
X4432300Y7340600D02*
G01*
X4504943Y7340600D01*
X4544568Y7366508D02*
G01*
X4544568Y7371587D01*
X4549647Y7382002D01*
X4554981Y7387336D01*
X4565395Y7392415D01*
X4585970Y7392415D01*
X4596384Y7387336D01*
X4601718Y7382002D01*
X4606797Y7371587D01*
X4606797Y7361173D01*
X4601718Y7350760D01*
X4591304Y7335265D01*
X4539234Y7283450D01*
X4612131Y7283450D01*
X3889857Y6871563D02*
G01*
X3879443Y6866483D01*
X3869029Y6856069D01*
X3863695Y6845655D01*
X3858615Y6829907D01*
X3858615Y6803999D01*
X3863695Y6788505D01*
X3869029Y6778091D01*
X3879443Y6767677D01*
X3889857Y6762597D01*
X3910685Y6762597D01*
X3920845Y6767677D01*
X3931259Y6778091D01*
X3936593Y6788505D01*
X3941673Y6803999D01*
X3941673Y6829907D01*
X3936593Y6845655D01*
X3931259Y6856069D01*
X3920845Y6866483D01*
X3910685Y6871563D01*
X3889857Y6871563D01*
X3905351Y6783171D02*
G01*
X3936593Y6752183D01*
X3975963Y6850735D02*
G01*
X3986377Y6856069D01*
X4002125Y6871563D01*
X4002125Y6762597D01*
X4550257Y6871563D02*
G01*
X4539843Y6866483D01*
X4529429Y6856069D01*
X4524095Y6845655D01*
X4519015Y6829907D01*
X4519015Y6803999D01*
X4524095Y6788505D01*
X4529429Y6778091D01*
X4539843Y6767677D01*
X4550257Y6762597D01*
X4571085Y6762597D01*
X4581245Y6767677D01*
X4591659Y6778091D01*
X4596993Y6788505D01*
X4602073Y6803999D01*
X4602073Y6829907D01*
X4596993Y6845655D01*
X4591659Y6856069D01*
X4581245Y6866483D01*
X4571085Y6871563D01*
X4550257Y6871563D01*
X4565751Y6783171D02*
G01*
X4596993Y6752183D01*
X4641697Y6845655D02*
G01*
X4641697Y6850735D01*
X4646777Y6861149D01*
X4652111Y6866483D01*
X4662525Y6871563D01*
X4683099Y6871563D01*
X4693513Y6866483D01*
X4698847Y6861149D01*
X4703927Y6850735D01*
X4703927Y6840321D01*
X4698847Y6829907D01*
X4688433Y6814413D01*
X4636363Y6762597D01*
X4709261Y6762597D01*
X2019300Y6630415D02*
G01*
X2019300Y6552437D01*
X2024379Y6536944D01*
X2034793Y6526529D01*
X2050541Y6521450D01*
X2060956Y6521450D01*
X2076450Y6526529D01*
X2086863Y6536944D01*
X2091943Y6552437D01*
X2091943Y6630415D01*
X2126234Y6609587D02*
G01*
X2136647Y6614921D01*
X2152395Y6630415D01*
X2152395Y6521450D01*
D11*
X1620012Y6325870D02*
G01*
X1564639Y6180581D01*
X1620012Y6325870D02*
G01*
X1675384Y6180581D01*
X1585468Y6229095D02*
G01*
X1654810Y6229095D01*
X1721104Y6325870D02*
G01*
X1721104Y6180581D01*
X1721104Y6325870D02*
G01*
X1818131Y6180581D01*
X1818131Y6325870D02*
G01*
X1818131Y6180581D01*
X1912365Y6325870D02*
G01*
X1912365Y6180581D01*
X1863852Y6325870D02*
G01*
X1960879Y6325870D01*
X2006600Y6325870D02*
G01*
X2006600Y6180581D01*
X2006600Y6325870D02*
G01*
X2096770Y6325870D01*
X2006600Y6256781D02*
G01*
X2061972Y6256781D01*
X2006600Y6180581D02*
G01*
X2096770Y6180581D01*
X2142490Y6325870D02*
G01*
X2142490Y6180581D01*
X2142490Y6325870D02*
G01*
X2239263Y6180581D01*
X2239263Y6325870D02*
G01*
X2239263Y6180581D01*
X2284984Y6325870D02*
G01*
X2284984Y6180581D01*
X2284984Y6325870D02*
G01*
X2382011Y6180581D01*
X2382011Y6325870D02*
G01*
X2382011Y6180581D01*
X2483104Y6325870D02*
G01*
X2427731Y6180581D01*
X2483104Y6325870D02*
G01*
X2538729Y6180581D01*
X2448559Y6229095D02*
G01*
X2517902Y6229095D01*
D12*
X1484629Y4916423D02*
G01*
X1484629Y4746752D01*
X1484629Y4916423D02*
G01*
X1541271Y4916423D01*
X1565402Y4908550D01*
X1581657Y4892294D01*
X1589786Y4876037D01*
X1597660Y4851907D01*
X1597660Y4811521D01*
X1589786Y4787137D01*
X1581657Y4771136D01*
X1565402Y4754879D01*
X1541271Y4746752D01*
X1484629Y4746752D01*
X1651000Y4884165D02*
G01*
X1667255Y4892294D01*
X1691639Y4916423D01*
X1691639Y4746752D01*
X1869439Y4860036D02*
G01*
X1869439Y4746752D01*
X1869439Y4827523D02*
G01*
X1893570Y4851907D01*
X1909826Y4860036D01*
X1933956Y4860036D01*
X1950211Y4851907D01*
X1958340Y4827523D01*
X1958340Y4746752D01*
X1958340Y4827523D02*
G01*
X1982470Y4851907D01*
X1998725Y4860036D01*
X2022856Y4860036D01*
X2039111Y4851907D01*
X2047240Y4827523D01*
X2047240Y4746752D01*
X2100579Y4916423D02*
G01*
X2108454Y4908550D01*
X2116581Y4916423D01*
X2108454Y4924552D01*
X2100579Y4916423D01*
X2108454Y4860036D02*
G01*
X2108454Y4746752D01*
X2169922Y4860036D02*
G01*
X2169922Y4746752D01*
X2169922Y4827523D02*
G01*
X2194306Y4851907D01*
X2210308Y4860036D01*
X2234691Y4860036D01*
X2250693Y4851907D01*
X2258822Y4827523D01*
X2258822Y4746752D01*
X2312161Y4916423D02*
G01*
X2320290Y4908550D01*
X2328418Y4916423D01*
X2320290Y4924552D01*
X2312161Y4916423D01*
X2320290Y4860036D02*
G01*
X2320290Y4746752D01*
D13*
X1028700Y3506215D02*
G01*
X1028700Y3409187D01*
X1028700Y3506215D02*
G01*
X1070355Y3506215D01*
X1084071Y3501389D01*
X1088644Y3496818D01*
X1093470Y3487673D01*
X1093470Y3478529D01*
X1088644Y3469131D01*
X1084071Y3464560D01*
X1070355Y3459987D01*
X1028700Y3459987D01*
X1060957Y3459987D02*
G01*
X1093470Y3409187D01*
X1123950Y3506215D02*
G01*
X1123950Y3409187D01*
X1123950Y3506215D02*
G01*
X1183894Y3506215D01*
X1123950Y3459987D02*
G01*
X1160779Y3459987D01*
X1123950Y3409187D02*
G01*
X1183894Y3409187D01*
X1278889Y3492245D02*
G01*
X1269745Y3501389D01*
X1256029Y3506215D01*
X1237487Y3506215D01*
X1223518Y3501389D01*
X1214373Y3492245D01*
X1214373Y3483102D01*
X1218945Y3473704D01*
X1223518Y3469131D01*
X1232915Y3464560D01*
X1260602Y3455415D01*
X1269745Y3450589D01*
X1274318Y3446018D01*
X1278889Y3436873D01*
X1278889Y3422904D01*
X1269745Y3413760D01*
X1256029Y3409187D01*
X1237487Y3409187D01*
X1223518Y3413760D01*
X1214373Y3422904D01*
X1309370Y3506215D02*
G01*
X1309370Y3409187D01*
X1309370Y3506215D02*
G01*
X1369568Y3506215D01*
X1309370Y3459987D02*
G01*
X1346454Y3459987D01*
X1309370Y3409187D02*
G01*
X1369568Y3409187D01*
X1432305Y3506215D02*
G01*
X1432305Y3409187D01*
X1400047Y3506215D02*
G01*
X1464563Y3506215D01*
D14*
X1809750Y3531870D02*
G01*
X1809750Y3445255D01*
X1815592Y3427729D01*
X1827021Y3416300D01*
X1844294Y3410457D01*
X1855978Y3410457D01*
X1873250Y3416300D01*
X1884679Y3427729D01*
X1890521Y3445255D01*
X1890521Y3531870D01*
X2009393Y3514344D02*
G01*
X1997963Y3526028D01*
X1980691Y3531870D01*
X1957577Y3531870D01*
X1940306Y3526028D01*
X1928621Y3514344D01*
X1928621Y3502913D01*
X1934463Y3491229D01*
X1940306Y3485642D01*
X1951736Y3479800D01*
X1986279Y3468370D01*
X1997963Y3462528D01*
X2003806Y3456686D01*
X2009393Y3445255D01*
X2009393Y3427729D01*
X1997963Y3416300D01*
X1980691Y3410457D01*
X1957577Y3410457D01*
X1940306Y3416300D01*
X1928621Y3427729D01*
X2047493Y3531870D02*
G01*
X2047493Y3410457D01*
X2047493Y3531870D02*
G01*
X2099563Y3531870D01*
X2116836Y3526028D01*
X2122677Y3520186D01*
X2128520Y3508755D01*
X2128520Y3497071D01*
X2122677Y3485642D01*
X2116836Y3479800D01*
X2099563Y3473957D01*
X2047493Y3473957D02*
G01*
X2099563Y3473957D01*
X2116836Y3468370D01*
X2122677Y3462528D01*
X2128520Y3450844D01*
X2128520Y3433571D01*
X2122677Y3422142D01*
X2116836Y3416300D01*
X2099563Y3410457D01*
X2047493Y3410457D01*
D10*
X3527087Y7294679D02*
G01*
X3636053Y7294679D01*
X3527087Y7294679D02*
G01*
X3527087Y7341415D01*
X3532167Y7356909D01*
X3537501Y7362243D01*
X3547915Y7367323D01*
X3558075Y7367323D01*
X3568489Y7362243D01*
X3573823Y7356909D01*
X3578903Y7341415D01*
X3578903Y7294679D02*
G01*
X3578903Y7341415D01*
X3584237Y7356909D01*
X3589317Y7362243D01*
X3599731Y7367323D01*
X3615225Y7367323D01*
X3625639Y7362243D01*
X3630973Y7356909D01*
X3636053Y7341415D01*
X3636053Y7294679D01*
X3527087Y7443269D02*
G01*
X3636053Y7401613D01*
X3527087Y7443269D02*
G01*
X3636053Y7484925D01*
X3599731Y7417361D02*
G01*
X3599731Y7469177D01*
X3527087Y7555537D02*
G01*
X3636053Y7555537D01*
X3527087Y7519215D02*
G01*
X3527087Y7591859D01*
X3527087Y7662471D02*
G01*
X3636053Y7662471D01*
X3527087Y7626149D02*
G01*
X3527087Y7698793D01*
X3552995Y7811061D02*
G01*
X3542581Y7805981D01*
X3532167Y7795567D01*
X3527087Y7785153D01*
X3527087Y7764325D01*
X3532167Y7753911D01*
X3542581Y7743497D01*
X3552995Y7738417D01*
X3568489Y7733083D01*
X3594651Y7733083D01*
X3610145Y7738417D01*
X3620559Y7743497D01*
X3630973Y7753911D01*
X3636053Y7764325D01*
X3636053Y7785153D01*
X3630973Y7795567D01*
X3620559Y7805981D01*
X3610145Y7811061D01*
X3527087Y7845351D02*
G01*
X3636053Y7845351D01*
X3527087Y7918249D02*
G01*
X3636053Y7918249D01*
X3578903Y7845351D02*
G01*
X3578903Y7918249D01*
X3552995Y8030263D02*
G01*
X3542581Y8025183D01*
X3532167Y8014769D01*
X3527087Y8004355D01*
X3527087Y7983527D01*
X3532167Y7973113D01*
X3542581Y7962699D01*
X3552995Y7957619D01*
X3568489Y7952539D01*
X3594651Y7952539D01*
X3610145Y7957619D01*
X3620559Y7962699D01*
X3630973Y7973113D01*
X3636053Y7983527D01*
X3636053Y8004355D01*
X3630973Y8014769D01*
X3620559Y8025183D01*
X3610145Y8030263D01*
X3594651Y8030263D01*
X3594651Y8004355D02*
G01*
X3594651Y8030263D01*
D15*
X2716529Y8216188D02*
G01*
X2707386Y8211616D01*
X2697988Y8202472D01*
X2693415Y8193328D01*
X2689352Y8179866D01*
X2689352Y8157006D01*
X2693415Y8143290D01*
X2697988Y8134400D01*
X2707386Y8125256D01*
X2716529Y8120684D01*
X2734309Y8120684D01*
X2743454Y8125256D01*
X2753106Y8134400D01*
X2756915Y8143290D01*
X2761488Y8157006D01*
X2761488Y8179866D01*
X2756915Y8193328D01*
X2753106Y8202472D01*
X2743454Y8211616D01*
X2734309Y8216188D01*
X2716529Y8216188D01*
X2791459Y8216188D02*
G01*
X2791459Y8147862D01*
X2796286Y8134400D01*
X2805429Y8125256D01*
X2818891Y8120684D01*
X2828036Y8120684D01*
X2842006Y8125256D01*
X2850641Y8134400D01*
X2855213Y8147862D01*
X2855213Y8216188D01*
X2916936Y8216188D02*
G01*
X2916936Y8120684D01*
X2885186Y8216188D02*
G01*
X2948940Y8216188D01*
X3020059Y8202472D02*
G01*
X3020059Y8120684D01*
X2978911Y8161578D02*
G01*
X3060954Y8161578D01*
X2874518Y7948726D02*
G01*
X2874518Y7853222D01*
X2874518Y7948726D02*
G01*
X2914650Y7948726D01*
X2928874Y7944154D01*
X2933445Y7939582D01*
X2938272Y7930438D01*
X2938272Y7921294D01*
X2933445Y7912404D01*
X2928874Y7907832D01*
X2914650Y7903260D01*
X2874518Y7903260D02*
G01*
X2914650Y7903260D01*
X2928874Y7898688D01*
X2933445Y7894116D01*
X2938272Y7884972D01*
X2938272Y7871510D01*
X2933445Y7862366D01*
X2928874Y7857794D01*
X2914650Y7853222D01*
X2874518Y7853222D01*
X3008375Y7935010D02*
G01*
X3008375Y7853222D01*
X2968243Y7894116D02*
G01*
X3049524Y7894116D01*
X2864865Y7088936D02*
G01*
X2864865Y6993178D01*
X2864865Y7088936D02*
G01*
X2905506Y7088936D01*
X2919475Y7084364D01*
X2924047Y7079538D01*
X2928620Y7070394D01*
X2928620Y7061504D01*
X2924047Y7052614D01*
X2919475Y7047788D01*
X2905506Y7043216D01*
X2864865Y7043216D02*
G01*
X2905506Y7043216D01*
X2919475Y7038644D01*
X2924047Y7034326D01*
X2928620Y7024928D01*
X2928620Y7011466D01*
X2924047Y7002576D01*
X2919475Y6998004D01*
X2905506Y6993178D01*
X2864865Y6993178D01*
X2958591Y7034326D02*
G01*
X3040379Y7034326D01*
X2728213Y6799376D02*
G01*
X2720086Y6794804D01*
X2710688Y6785660D01*
X2705861Y6776516D01*
X2701290Y6763054D01*
X2701290Y6740194D01*
X2705861Y6726478D01*
X2710688Y6717588D01*
X2720086Y6708444D01*
X2728213Y6703872D01*
X2747009Y6703872D01*
X2755645Y6708444D01*
X2764790Y6717588D01*
X2769361Y6726478D01*
X2774188Y6740194D01*
X2774188Y6763054D01*
X2769361Y6776516D01*
X2764790Y6785660D01*
X2755645Y6794804D01*
X2747009Y6799376D01*
X2728213Y6799376D01*
X2804159Y6799376D02*
G01*
X2804159Y6731050D01*
X2808986Y6717588D01*
X2817368Y6708444D01*
X2831338Y6703872D01*
X2840736Y6703872D01*
X2853690Y6708444D01*
X2863088Y6717588D01*
X2867913Y6731050D01*
X2867913Y6799376D01*
X2929636Y6799376D02*
G01*
X2929636Y6703872D01*
X2897886Y6799376D02*
G01*
X2961640Y6799376D01*
X2991611Y6744766D02*
G01*
X3072891Y6744766D01*
X1063244Y8194598D02*
G01*
X1063244Y8099094D01*
X1093215Y8194598D02*
G01*
X1093215Y8099094D01*
X1093215Y8194598D02*
G01*
X1156970Y8099094D01*
X1156970Y8194598D02*
G01*
X1156970Y8099094D01*
X1227836Y8180882D02*
G01*
X1227836Y8099094D01*
X1186942Y8139988D02*
G01*
X1268729Y8139988D01*
X1063244Y6797598D02*
G01*
X1063244Y6702094D01*
X1093215Y6797598D02*
G01*
X1093215Y6702094D01*
X1093215Y6797598D02*
G01*
X1156970Y6702094D01*
X1156970Y6797598D02*
G01*
X1156970Y6702094D01*
X1186942Y6742988D02*
G01*
X1268729Y6742988D01*
X1611884Y8262924D02*
G01*
X1611884Y8178088D01*
X1583689Y8262924D02*
G01*
X1640331Y8262924D01*
X1667002Y8262924D02*
G01*
X1667002Y8178088D01*
X1667002Y8262924D02*
G01*
X1703323Y8262924D01*
X1715515Y8258860D01*
X1719579Y8254796D01*
X1723389Y8246668D01*
X1723389Y8234730D01*
X1719579Y8226602D01*
X1715515Y8222538D01*
X1703323Y8218474D01*
X1667002Y8218474D01*
X1790700Y8262924D02*
G01*
X1750060Y8206282D01*
X1810765Y8206282D01*
X1790700Y8262924D02*
G01*
X1790700Y8178088D01*
X1861820Y8262924D02*
G01*
X1849628Y8258860D01*
X1841500Y8246668D01*
X1837436Y8226602D01*
X1837436Y8214410D01*
X1841500Y8194090D01*
X1849628Y8182152D01*
X1861820Y8178088D01*
X1869694Y8178088D01*
X1881886Y8182152D01*
X1890013Y8194090D01*
X1894078Y8214410D01*
X1894078Y8226602D01*
X1890013Y8246668D01*
X1881886Y8258860D01*
X1869694Y8262924D01*
X1861820Y8262924D01*
X1969261Y8262924D02*
G01*
X1928876Y8262924D01*
X1924812Y8226602D01*
X1928876Y8230666D01*
X1940813Y8234730D01*
X1953006Y8234730D01*
X1965197Y8230666D01*
X1973325Y8222538D01*
X1977390Y8210346D01*
X1977390Y8202218D01*
X1973325Y8190280D01*
X1965197Y8182152D01*
X1953006Y8178088D01*
X1940813Y8178088D01*
X1928876Y8182152D01*
X1924812Y8186216D01*
X1920747Y8194090D01*
X2052320Y8250732D02*
G01*
X2048509Y8258860D01*
X2036318Y8262924D01*
X2028190Y8262924D01*
X2015997Y8258860D01*
X2007870Y8246668D01*
X2004059Y8226602D01*
X2004059Y8206282D01*
X2007870Y8190280D01*
X2015997Y8182152D01*
X2028190Y8178088D01*
X2032254Y8178088D01*
X2044445Y8182152D01*
X2052320Y8190280D01*
X2056384Y8202218D01*
X2056384Y8206282D01*
X2052320Y8218474D01*
X2044445Y8226602D01*
X2032254Y8230666D01*
X2028190Y8230666D01*
X2015997Y8226602D01*
X2007870Y8218474D01*
X2004059Y8206282D01*
X2119629Y8250732D02*
G01*
X2119629Y8178088D01*
X2083054Y8214410D02*
G01*
X2155952Y8214410D01*
X2182622Y8246668D02*
G01*
X2190750Y8250732D01*
X2202688Y8262924D01*
X2202688Y8178088D01*
X2249677Y8262924D02*
G01*
X2237486Y8258860D01*
X2233422Y8250732D01*
X2233422Y8242604D01*
X2237486Y8234730D01*
X2245613Y8230666D01*
X2261870Y8226602D01*
X2273808Y8222538D01*
X2281936Y8214410D01*
X2286000Y8206282D01*
X2286000Y8194090D01*
X2281936Y8186216D01*
X2277872Y8182152D01*
X2265679Y8178088D01*
X2249677Y8178088D01*
X2237486Y8182152D01*
X2233422Y8186216D01*
X2229358Y8194090D01*
X2229358Y8206282D01*
X2233422Y8214410D01*
X2241550Y8222538D01*
X2253741Y8226602D01*
X2269743Y8230666D01*
X2277872Y8234730D01*
X2281936Y8242604D01*
X2281936Y8250732D01*
X2277872Y8258860D01*
X2265679Y8262924D01*
X2249677Y8262924D01*
X2361184Y8250732D02*
G01*
X2357120Y8258860D01*
X2344927Y8262924D01*
X2336800Y8262924D01*
X2324861Y8258860D01*
X2316734Y8246668D01*
X2312670Y8226602D01*
X2312670Y8206282D01*
X2316734Y8190280D01*
X2324861Y8182152D01*
X2336800Y8178088D01*
X2340863Y8178088D01*
X2353056Y8182152D01*
X2361184Y8190280D01*
X2365247Y8202218D01*
X2365247Y8206282D01*
X2361184Y8218474D01*
X2353056Y8226602D01*
X2340863Y8230666D01*
X2336800Y8230666D01*
X2324861Y8226602D01*
X2316734Y8218474D01*
X2312670Y8206282D01*
X2440431Y8262924D02*
G01*
X2400045Y8262924D01*
X2395981Y8226602D01*
X2400045Y8230666D01*
X2411984Y8234730D01*
X2424175Y8234730D01*
X2436368Y8230666D01*
X2444495Y8222538D01*
X2448559Y8210346D01*
X2448559Y8202218D01*
X2444495Y8190280D01*
X2436368Y8182152D01*
X2424175Y8178088D01*
X2411984Y8178088D01*
X2400045Y8182152D01*
X2395981Y8186216D01*
X2391918Y8194090D01*
X2499359Y8262924D02*
G01*
X2487168Y8258860D01*
X2479040Y8246668D01*
X2475229Y8226602D01*
X2475229Y8214410D01*
X2479040Y8194090D01*
X2487168Y8182152D01*
X2499359Y8178088D01*
X2507488Y8178088D01*
X2519679Y8182152D01*
X2527554Y8194090D01*
X2531618Y8214410D01*
X2531618Y8226602D01*
X2527554Y8246668D01*
X2519679Y8258860D01*
X2507488Y8262924D01*
X2499359Y8262924D01*
D10*
X4102100Y5233415D02*
G01*
X4102100Y5155437D01*
X4107179Y5139944D01*
X4117593Y5129529D01*
X4133341Y5124450D01*
X4143756Y5124450D01*
X4159250Y5129529D01*
X4169663Y5139944D01*
X4174743Y5155437D01*
X4174743Y5233415D01*
X4219447Y5233415D02*
G01*
X4276597Y5233415D01*
X4245609Y5191760D01*
X4261104Y5191760D01*
X4271518Y5186679D01*
X4276597Y5181600D01*
X4281931Y5165852D01*
X4281931Y5155437D01*
X4276597Y5139944D01*
X4266184Y5129529D01*
X4250690Y5124450D01*
X4235195Y5124450D01*
X4219447Y5129529D01*
X4214368Y5134610D01*
X4209034Y5145023D01*
X4140200Y6084315D02*
G01*
X4140200Y6006337D01*
X4145279Y5990844D01*
X4155693Y5980429D01*
X4171441Y5975350D01*
X4181856Y5975350D01*
X4197350Y5980429D01*
X4207763Y5990844D01*
X4212843Y6006337D01*
X4212843Y6084315D01*
X4299204Y6084315D02*
G01*
X4247134Y6011671D01*
X4325111Y6011671D01*
X4299204Y6084315D02*
G01*
X4299204Y5975350D01*
X4114800Y5665215D02*
G01*
X4114800Y5587237D01*
X4119879Y5571744D01*
X4130293Y5561329D01*
X4146041Y5556250D01*
X4156456Y5556250D01*
X4171950Y5561329D01*
X4182363Y5571744D01*
X4187443Y5587237D01*
X4187443Y5665215D01*
X4284218Y5665215D02*
G01*
X4232147Y5665215D01*
X4227068Y5618479D01*
X4232147Y5623560D01*
X4247895Y5628894D01*
X4263390Y5628894D01*
X4278884Y5623560D01*
X4289297Y5613400D01*
X4294631Y5597652D01*
X4294631Y5587237D01*
X4289297Y5571744D01*
X4278884Y5561329D01*
X4263390Y5556250D01*
X4247895Y5556250D01*
X4232147Y5561329D01*
X4227068Y5566410D01*
X4221734Y5576823D01*
X3956367Y3333750D02*
G01*
X3956367Y3255771D01*
X3961447Y3240278D01*
X3971861Y3229863D01*
X3987609Y3224784D01*
X3998023Y3224784D01*
X4013517Y3229863D01*
X4023931Y3240278D01*
X4029011Y3255771D01*
X4029011Y3333750D01*
X4136199Y3333750D02*
G01*
X4084129Y3224784D01*
X4063301Y3333750D02*
G01*
X4136199Y3333750D01*
D16*
X4278873Y4406600D02*
G01*
X4278873Y4686599D01*
X4374799Y4406600D02*
G01*
X4374799Y4686599D01*
X4374799Y4686599D02*
G01*
X3854800Y4686599D01*
X3854800Y4406600D02*
G01*
X3854800Y4686599D01*
X4374799Y4406600D02*
G01*
X3854800Y4406600D01*
X4291573Y3936700D02*
G01*
X4291573Y4216699D01*
X4387499Y3936700D02*
G01*
X4387499Y4216699D01*
X4387499Y4216699D02*
G01*
X3867500Y4216699D01*
X3867500Y3936700D02*
G01*
X3867500Y4216699D01*
X4387499Y3936700D02*
G01*
X3867500Y3936700D01*
X3936314Y8076694D02*
G01*
X3936314Y7696700D01*
X3938198Y8076694D02*
G01*
X3936314Y8076694D01*
X3938198Y7696700D02*
G01*
X3936314Y7696700D01*
X4686312Y7696700D02*
G01*
X4164429Y7696700D01*
X4686312Y8076694D02*
G01*
X4164429Y8076694D01*
X4686312Y8076694D02*
G01*
X4686312Y7696700D01*
D15*
X4038600Y7264400D02*
G01*
X4038600Y7010400D01*
X3530600Y7010400D01*
X3530600Y7264400D01*
X3721100Y7264400D01*
D17*
X4038600Y7264400D02*
G01*
X3721100Y7264400D01*
D15*
X4699000Y7264400D02*
G01*
X4699000Y7010400D01*
X4191000Y7010400D01*
X4191000Y7264400D01*
X4381500Y7264400D01*
D17*
X4699000Y7264400D02*
G01*
X4381500Y7264400D01*
D18*
X3695811Y6341602D02*
G01*
X4025811Y6341602D01*
X4356211Y6341602D02*
G01*
X4686211Y6341602D01*
D19*
X774700Y4991100D02*
G01*
X838200Y5054600D01*
X774700Y5118100D01*
X774700Y5245100D01*
X838200Y5308600D01*
X774700Y5372100D01*
X774700Y5499100D01*
X838200Y5562600D01*
X774700Y5626100D01*
X774700Y5753100D01*
X838200Y5816600D01*
X965200Y5816600D01*
X1028700Y5753100D01*
X1028700Y5626100D01*
X965200Y5562600D01*
X1028700Y5499100D01*
X1028700Y5372100D01*
X965200Y5308600D01*
X1028700Y5245100D01*
X1028700Y5118100D01*
X965200Y5054600D01*
X1028700Y4991100D01*
X1028700Y4864100D01*
X965200Y4800600D01*
X1028700Y4737100D01*
X1028700Y4610100D01*
X965200Y4546600D01*
X1028700Y4483100D01*
X1028700Y4356100D01*
X965200Y4292600D01*
X1028700Y4229100D01*
X1028700Y4102100D01*
X965200Y4038600D01*
X1028700Y3975100D01*
X1028700Y3848100D01*
X965200Y3784600D01*
X838200Y3784600D01*
X774700Y3848100D01*
X774700Y4864100D02*
G01*
X838200Y4800600D01*
X774700Y4737100D01*
X774700Y4610100D02*
G01*
X838200Y4546600D01*
X774700Y4483100D01*
X774700Y4356100D02*
G01*
X838200Y4292600D01*
X774700Y4229100D01*
X774700Y4102100D02*
G01*
X838200Y4038600D01*
X774700Y3975100D01*
X774700Y5753100D02*
G01*
X774700Y6451600D01*
X1257300Y6451600D01*
X1257300Y5880100D01*
X2832100Y5880100D01*
X2832100Y4279900D01*
X2832100Y5880100D02*
G01*
X2832100Y6451600D01*
X3314700Y6451600D01*
X3314700Y5753100D01*
X3314700Y5626100D01*
X3314700Y5499100D01*
X3314700Y5372100D01*
X3314700Y5245100D01*
X3314700Y5118100D01*
X3314700Y3022600D01*
X2425700Y3022600D01*
X2425700Y3175000D01*
X2362200Y3175000D01*
X2362200Y3213100D01*
X774700Y5245100D02*
G01*
X774700Y5372100D01*
X774700Y5499100D02*
G01*
X774700Y5626100D01*
X3314700Y5118100D02*
G01*
X3251200Y5054600D01*
X3314700Y4991100D01*
X3314700Y4864100D02*
G01*
X3251200Y4800600D01*
X3314700Y4737100D01*
X3314700Y4610100D02*
G01*
X3251200Y4546600D01*
X3314700Y4483100D01*
X3314700Y4356100D02*
G01*
X3251200Y4292600D01*
X3314700Y4229100D01*
X3314700Y4102100D02*
G01*
X3251200Y4038600D01*
X3314700Y3975100D01*
X3314700Y3848100D02*
G01*
X3251200Y3784600D01*
X3124200Y3784600D01*
X3060700Y3848100D01*
X3060700Y3975100D01*
X3124200Y4038600D01*
X3060700Y4102100D01*
X3060700Y4229100D01*
X3124200Y4292600D01*
X3060700Y4356100D01*
X3060700Y4483100D01*
X3124200Y4546600D01*
X3060700Y4610100D01*
X3060700Y4737100D01*
X3124200Y4800600D01*
X3060700Y4864100D01*
X3060700Y4991100D01*
X3124200Y5054600D01*
X3060700Y5118100D01*
X3060700Y5245100D01*
X3124200Y5308600D01*
X3060700Y5372100D01*
X3060700Y5499100D01*
X3124200Y5562600D01*
X3060700Y5626100D01*
X3060700Y5753100D01*
X3124200Y5816600D01*
X3251200Y5816600D01*
X3314700Y5753100D01*
X3314700Y5626100D02*
G01*
X3251200Y5562600D01*
X3314700Y5499100D01*
X3314700Y5372100D02*
G01*
X3251200Y5308600D01*
X3314700Y5245100D01*
X774700Y5118100D02*
G01*
X774700Y3721100D01*
X965200Y3721100D01*
X965200Y3530600D01*
X965200Y3276600D01*
X965200Y3022600D01*
X1536700Y3022600D01*
X1536700Y3175000D01*
X1600200Y3175000D01*
X1600200Y3213100D01*
X965200Y3530600D02*
G01*
X838200Y3530600D01*
X838200Y3276600D01*
X965200Y3276600D01*
X1600200Y3175000D02*
G01*
X1600200Y3086100D01*
X2362200Y3086100D01*
X2362200Y3175000D01*
X1663700Y3721100D02*
G01*
X1600200Y3721100D01*
X1600200Y3657600D01*
X1600200Y3594100D02*
G01*
X1600200Y3530600D01*
X1600200Y3467100D02*
G01*
X1600200Y3403600D01*
X1600200Y3340100D02*
G01*
X1600200Y3276600D01*
X1727200Y3721100D02*
G01*
X1790700Y3721100D01*
X1854200Y3721100D02*
G01*
X1917700Y3721100D01*
X1981200Y3721100D02*
G01*
X2044700Y3721100D01*
X2108200Y3721100D02*
G01*
X2171700Y3721100D01*
X2235200Y3721100D02*
G01*
X2298700Y3721100D01*
X2362200Y3721100D02*
G01*
X2362200Y3657600D01*
X2362200Y3594100D02*
G01*
X2362200Y3530600D01*
X2362200Y3467100D02*
G01*
X2362200Y3403600D01*
X2362200Y3340100D02*
G01*
X2362200Y3276600D01*
X1257300Y6451600D02*
G01*
X1257300Y6477000D01*
X2832100Y6477000D01*
X2832100Y6451600D01*
X1257300Y5880100D02*
G01*
X1257300Y4102100D01*
X2628900Y4102100D01*
D16*
X764489Y6584314D02*
G01*
X2044496Y6584314D01*
X3334486Y6584314D01*
X3494486Y6584314D01*
X3494486Y6784314D01*
X3334486Y6784136D01*
X3334486Y8114868D01*
X3494481Y8114309D01*
X3494481Y8314309D01*
X3334486Y8314309D01*
X764489Y8314309D01*
X764489Y6584314D01*
X697636Y7798562D02*
G01*
X697636Y7757896D01*
X697636Y7158456D02*
G01*
X697636Y7117816D01*
X697636Y7798562D02*
G01*
X768730Y7798562D01*
X768730Y7798562D02*
G01*
X1197990Y7798562D01*
X1197990Y7117816D02*
G01*
X768730Y7117816D01*
X768730Y7117816D02*
G01*
X697636Y7117816D01*
X697636Y7798562D02*
G01*
X639190Y7856956D01*
X697636Y7117816D02*
G01*
X639190Y7059396D01*
X697636Y7757896D02*
G01*
X659536Y7757896D01*
X634136Y7737576D02*
G01*
X634136Y7183856D01*
X654430Y7158456D02*
G01*
X697636Y7158456D01*
X1037970Y7798562D02*
G01*
X1197990Y7798562D01*
X1197990Y7798562D02*
G01*
X1197990Y7679156D01*
X1197990Y7117816D02*
G01*
X1197990Y7237196D01*
X1037970Y7117816D02*
G01*
X1197990Y7117816D01*
X768730Y7798562D02*
G01*
X768730Y7117816D01*
X1197990Y7679156D02*
G01*
X1058290Y7679156D01*
X1058290Y7679156D02*
G01*
X1058290Y7237196D01*
X1058290Y7237196D02*
G01*
X1197990Y7237196D01*
X3787099Y5085699D02*
G01*
X4417100Y5085699D01*
X4417100Y5085699D02*
G01*
X4417100Y4845700D01*
X4417100Y4845700D02*
G01*
X3787099Y4845700D01*
X3787099Y4845700D02*
G01*
X3787099Y5085699D01*
X3825199Y5936599D02*
G01*
X4455200Y5936599D01*
X4455200Y5936599D02*
G01*
X4455200Y5696600D01*
X4455200Y5696600D02*
G01*
X3825199Y5696600D01*
X3825199Y5696600D02*
G01*
X3825199Y5936599D01*
X3799799Y5517499D02*
G01*
X4429800Y5517499D01*
X4429800Y5517499D02*
G01*
X4429800Y5277500D01*
X4429800Y5277500D02*
G01*
X3799799Y5277500D01*
X3799799Y5277500D02*
G01*
X3799799Y5517499D01*
X4267200Y3585900D02*
G01*
X4267200Y3683000D01*
X4241800Y3683000D01*
X4233148Y3454400D02*
G01*
X4267200Y3454400D01*
X4267200Y3551499D01*
X3975100Y3454400D02*
G01*
X4241800Y3454400D01*
X4241800Y3683000D01*
X3975100Y3683000D01*
X3975100Y3454400D01*
X4565637Y3365500D02*
G01*
X3663937Y3365500D01*
X3663937Y3771900D01*
X4565637Y3771900D01*
X4565637Y3365500D01*
D18*
G75*
G01*
X4025811Y6341603D02*
G03*
X3695802Y6341720I-164954J143707D01*
G75*
G01*
X4686211Y6341603D02*
G03*
X4356202Y6341720I-164954J143707D01*
D16*
G75*
G01*
X658114Y7758481D02*
G03*
X633222Y7738415I-1316J-23840D01*
G75*
G01*
X633222Y7183425D02*
G03*
X653034Y7158533I23837J-1358D01*
M02*
