G04 Layer: BottomSolderMaskLayer*
G04 EasyEDA v6.5.47, 2024-10-06 10:13:02*
G04 ffcbb33f17924234841025c486cc4069,e014b3835f5d4d88964e6d66dd9d747e,10*
G04 Gerber Generator version 0.2*
G04 Scale: 100 percent, Rotated: No, Reflected: No *
G04 Dimensions in millimeters *
G04 leading zeros omitted , absolute positions ,4 integer and 5 decimal *
%FSLAX45Y45*%
%MOMM*%

%AMMACRO1*4,1,8,-1.0211,-1.0508,-1.0508,-1.0208,-1.0508,1.0211,-1.0211,1.0508,1.0208,1.0508,1.0508,1.0211,1.0508,-1.0208,1.0208,-1.0508,-1.0211,-1.0508,0*%
%AMMACRO2*4,1,8,-0.5211,-0.6507,-0.5508,-0.6208,-0.5508,0.621,-0.5211,0.6507,0.5208,0.6507,0.5508,0.621,0.5508,-0.6208,0.5208,-0.6507,-0.5211,-0.6507,0*%
%AMMACRO3*4,1,8,-0.921,-0.9507,-0.9507,-0.9207,-0.9507,0.921,-0.921,0.9507,0.9207,0.9507,0.9507,0.921,0.9507,-0.9207,0.9207,-0.9507,-0.921,-0.9507,0*%
%AMMACRO4*4,1,8,-0.921,-0.9507,-0.9507,-0.9207,-0.9507,0.921,-0.921,0.9507,0.9208,0.9507,0.9507,0.921,0.9507,-0.9207,0.9208,-0.9507,-0.921,-0.9507,0*%
%ADD10C,1.9016*%
%ADD11MACRO1*%
%ADD12C,2.1016*%
%ADD13MACRO2*%
%ADD14O,1.1015979999999999X1.3015976*%
%ADD15C,1.6080*%
%ADD16MACRO3*%
%ADD17MACRO4*%
%ADD18C,1.6256*%
%ADD19C,1.6240*%

%LPD*%
D10*
G01*
X3679799Y4546600D03*
G01*
X4549800Y4546600D03*
G01*
X3692499Y4076700D03*
G01*
X4562500Y4076700D03*
D11*
G01*
X3657600Y7137400D03*
D12*
G01*
X3911600Y7137400D03*
D11*
G01*
X4318000Y7137400D03*
D12*
G01*
X4572000Y7137400D03*
D13*
G01*
X3733812Y6451600D03*
D14*
G01*
X3860800Y6451600D03*
G01*
X3987800Y6451600D03*
D13*
G01*
X4394212Y6451600D03*
D14*
G01*
X4521200Y6451600D03*
G01*
X4648200Y6451600D03*
D15*
G01*
X3187700Y3911600D03*
G01*
X901700Y3911600D03*
G01*
X3187700Y5689600D03*
G01*
X3187700Y5435600D03*
G01*
X3187700Y5181600D03*
G01*
X3187700Y4927600D03*
G01*
X3187700Y4673600D03*
G01*
X3187700Y4419600D03*
G01*
X3187700Y4165600D03*
G01*
X901700Y5689600D03*
G01*
X901700Y5435600D03*
G01*
X901700Y5181600D03*
G01*
X901700Y4927600D03*
G01*
X901700Y4673600D03*
G01*
X901700Y4419600D03*
G01*
X901700Y4165600D03*
D16*
G01*
X904494Y8154923D03*
G01*
X904494Y6754876D03*
D17*
G01*
X3184905Y8154923D03*
G01*
X3184905Y6754876D03*
G01*
X3184905Y7901762D03*
G01*
X3184905Y7008876D03*
D18*
G01*
X3587089Y4965700D03*
G01*
X4617110Y4965700D03*
G01*
X3625189Y5816600D03*
G01*
X4655210Y5816600D03*
G01*
X3599789Y5397500D03*
G01*
X4629810Y5397500D03*
D19*
G01*
X4364786Y3568700D03*
G01*
X4114800Y3568700D03*
G01*
X3864813Y3568700D03*
M02*
