G04 Layer: TopLayer*
G04 EasyEDA v6.5.47, 2024-10-06 10:13:02*
G04 ffcbb33f17924234841025c486cc4069,e014b3835f5d4d88964e6d66dd9d747e,10*
G04 Gerber Generator version 0.2*
G04 Scale: 100 percent, Rotated: No, Reflected: No *
G04 Dimensions in millimeters *
G04 leading zeros omitted , absolute positions ,4 integer and 5 decimal *
%FSLAX45Y45*%
%MOMM*%

%ADD10C,0.2032*%
%ADD11C,0.1500*%
%ADD12C,0.2540*%
%ADD13R,1.8000X2.0500*%
%ADD14C,1.8000*%
%ADD15R,2.0000X2.0000*%
%ADD16C,2.0000*%
%ADD17R,1.0000X1.2000*%
%ADD18O,0.9999979999999999X1.1999976*%
%ADD19C,1.5080*%
%ADD20R,1.8000X1.8000*%
%ADD21C,1.5240*%
%ADD22C,0.0100*%

%LPD*%
D10*
X4267200Y6234937D02*
G01*
X4267200Y6139434D01*
X4267200Y6234937D02*
G01*
X4308093Y6234937D01*
X4321809Y6230365D01*
X4326381Y6225794D01*
X4330954Y6216904D01*
X4330954Y6207760D01*
X4326381Y6198615D01*
X4321809Y6194044D01*
X4308093Y6189471D01*
X4267200Y6189471D02*
G01*
X4308093Y6189471D01*
X4321809Y6184900D01*
X4326381Y6180581D01*
X4330954Y6171437D01*
X4330954Y6157721D01*
X4326381Y6148578D01*
X4321809Y6144005D01*
X4308093Y6139434D01*
X4267200Y6139434D01*
X4428997Y6212331D02*
G01*
X4424425Y6221476D01*
X4415281Y6230365D01*
X4406391Y6234937D01*
X4388104Y6234937D01*
X4378959Y6230365D01*
X4369815Y6221476D01*
X4365497Y6212331D01*
X4360925Y6198615D01*
X4360925Y6176010D01*
X4365497Y6162294D01*
X4369815Y6153150D01*
X4378959Y6144005D01*
X4388104Y6139434D01*
X4406391Y6139434D01*
X4415281Y6144005D01*
X4424425Y6153150D01*
X4428997Y6162294D01*
X4504436Y6234937D02*
G01*
X4458970Y6171437D01*
X4527295Y6171437D01*
X4504436Y6234937D02*
G01*
X4504436Y6139434D01*
X4611624Y6234937D02*
G01*
X4566411Y6234937D01*
X4561840Y6194044D01*
X4566411Y6198615D01*
X4579874Y6203187D01*
X4593590Y6203187D01*
X4607306Y6198615D01*
X4616195Y6189471D01*
X4620768Y6176010D01*
X4620768Y6166865D01*
X4616195Y6153150D01*
X4607306Y6144005D01*
X4593590Y6139434D01*
X4579874Y6139434D01*
X4566411Y6144005D01*
X4561840Y6148578D01*
X4557268Y6157721D01*
X4714493Y6234937D02*
G01*
X4669027Y6139434D01*
X4650740Y6234937D02*
G01*
X4714493Y6234937D01*
X3644900Y6234937D02*
G01*
X3644900Y6139434D01*
X3644900Y6234937D02*
G01*
X3685793Y6234937D01*
X3699509Y6230365D01*
X3704081Y6225794D01*
X3708654Y6216904D01*
X3708654Y6207760D01*
X3704081Y6198615D01*
X3699509Y6194044D01*
X3685793Y6189471D01*
X3644900Y6189471D02*
G01*
X3685793Y6189471D01*
X3699509Y6184900D01*
X3704081Y6180581D01*
X3708654Y6171437D01*
X3708654Y6157721D01*
X3704081Y6148578D01*
X3699509Y6144005D01*
X3685793Y6139434D01*
X3644900Y6139434D01*
X3806697Y6212331D02*
G01*
X3802125Y6221476D01*
X3792981Y6230365D01*
X3784091Y6234937D01*
X3765804Y6234937D01*
X3756659Y6230365D01*
X3747515Y6221476D01*
X3743197Y6212331D01*
X3738625Y6198615D01*
X3738625Y6176010D01*
X3743197Y6162294D01*
X3747515Y6153150D01*
X3756659Y6144005D01*
X3765804Y6139434D01*
X3784091Y6139434D01*
X3792981Y6144005D01*
X3802125Y6153150D01*
X3806697Y6162294D01*
X3882136Y6234937D02*
G01*
X3836670Y6171437D01*
X3904995Y6171437D01*
X3882136Y6234937D02*
G01*
X3882136Y6139434D01*
X3989324Y6234937D02*
G01*
X3944111Y6234937D01*
X3939540Y6194044D01*
X3944111Y6198615D01*
X3957574Y6203187D01*
X3971290Y6203187D01*
X3985006Y6198615D01*
X3993895Y6189471D01*
X3998468Y6176010D01*
X3998468Y6166865D01*
X3993895Y6153150D01*
X3985006Y6144005D01*
X3971290Y6139434D01*
X3957574Y6139434D01*
X3944111Y6144005D01*
X3939540Y6148578D01*
X3934968Y6157721D01*
X4092193Y6234937D02*
G01*
X4046727Y6139434D01*
X4028440Y6234937D02*
G01*
X4092193Y6234937D01*
D11*
X3886200Y5840476D02*
G01*
X3893058Y5844031D01*
X3903218Y5854192D01*
X3903218Y5782563D01*
X3966718Y5854192D02*
G01*
X3932681Y5854192D01*
X3929125Y5823457D01*
X3932681Y5827013D01*
X3942841Y5830315D01*
X3953002Y5830315D01*
X3963161Y5827013D01*
X3970020Y5820155D01*
X3973575Y5809742D01*
X3973575Y5803137D01*
X3970020Y5792723D01*
X3963161Y5786120D01*
X3953002Y5782563D01*
X3942841Y5782563D01*
X3932681Y5786120D01*
X3929125Y5789421D01*
X3925824Y5796279D01*
X4016502Y5854192D02*
G01*
X4006088Y5850889D01*
X3999484Y5840476D01*
X3995927Y5823457D01*
X3995927Y5813297D01*
X3999484Y5796279D01*
X4006088Y5786120D01*
X4016502Y5782563D01*
X4023359Y5782563D01*
X4033520Y5786120D01*
X4040377Y5796279D01*
X4043679Y5813297D01*
X4043679Y5823457D01*
X4040377Y5840476D01*
X4033520Y5850889D01*
X4023359Y5854192D01*
X4016502Y5854192D01*
X4135627Y5830315D02*
G01*
X4129024Y5827013D01*
X4122165Y5820155D01*
X4118609Y5809742D01*
X4118609Y5803137D01*
X4122165Y5792723D01*
X4129024Y5786120D01*
X4135627Y5782563D01*
X4146041Y5782563D01*
X4152900Y5786120D01*
X4159504Y5792723D01*
X4163059Y5803137D01*
X4163059Y5809742D01*
X4159504Y5820155D01*
X4152900Y5827013D01*
X4146041Y5830315D01*
X4135627Y5830315D01*
X4185411Y5854192D02*
G01*
X4185411Y5782563D01*
X4185411Y5816600D02*
G01*
X4195825Y5827013D01*
X4202684Y5830315D01*
X4212843Y5830315D01*
X4219702Y5827013D01*
X4223004Y5816600D01*
X4223004Y5782563D01*
X4245609Y5830315D02*
G01*
X4245609Y5782563D01*
X4245609Y5816600D02*
G01*
X4255770Y5827013D01*
X4262627Y5830315D01*
X4272788Y5830315D01*
X4279645Y5827013D01*
X4282947Y5816600D01*
X4282947Y5782563D01*
X4282947Y5816600D02*
G01*
X4293361Y5827013D01*
X4299965Y5830315D01*
X4310379Y5830315D01*
X4316984Y5827013D01*
X4320540Y5816600D01*
X4320540Y5782563D01*
X3860800Y5421376D02*
G01*
X3867658Y5424931D01*
X3877818Y5435092D01*
X3877818Y5363463D01*
X3941318Y5435092D02*
G01*
X3907281Y5435092D01*
X3903725Y5404357D01*
X3907281Y5407913D01*
X3917441Y5411215D01*
X3927602Y5411215D01*
X3937761Y5407913D01*
X3944620Y5401055D01*
X3948175Y5390642D01*
X3948175Y5384037D01*
X3944620Y5373623D01*
X3937761Y5367020D01*
X3927602Y5363463D01*
X3917441Y5363463D01*
X3907281Y5367020D01*
X3903725Y5370321D01*
X3900424Y5377179D01*
X3991102Y5435092D02*
G01*
X3980688Y5431789D01*
X3974084Y5421376D01*
X3970527Y5404357D01*
X3970527Y5394197D01*
X3974084Y5377179D01*
X3980688Y5367020D01*
X3991102Y5363463D01*
X3997959Y5363463D01*
X4008120Y5367020D01*
X4014977Y5377179D01*
X4018279Y5394197D01*
X4018279Y5404357D01*
X4014977Y5421376D01*
X4008120Y5431789D01*
X3997959Y5435092D01*
X3991102Y5435092D01*
X4110227Y5411215D02*
G01*
X4103624Y5407913D01*
X4096765Y5401055D01*
X4093209Y5390642D01*
X4093209Y5384037D01*
X4096765Y5373623D01*
X4103624Y5367020D01*
X4110227Y5363463D01*
X4120641Y5363463D01*
X4127500Y5367020D01*
X4134104Y5373623D01*
X4137659Y5384037D01*
X4137659Y5390642D01*
X4134104Y5401055D01*
X4127500Y5407913D01*
X4120641Y5411215D01*
X4110227Y5411215D01*
X4160011Y5435092D02*
G01*
X4160011Y5363463D01*
X4160011Y5397500D02*
G01*
X4170425Y5407913D01*
X4177284Y5411215D01*
X4187443Y5411215D01*
X4194302Y5407913D01*
X4197604Y5397500D01*
X4197604Y5363463D01*
X4220209Y5411215D02*
G01*
X4220209Y5363463D01*
X4220209Y5397500D02*
G01*
X4230370Y5407913D01*
X4237227Y5411215D01*
X4247388Y5411215D01*
X4254245Y5407913D01*
X4257547Y5397500D01*
X4257547Y5363463D01*
X4257547Y5397500D02*
G01*
X4267961Y5407913D01*
X4274565Y5411215D01*
X4284979Y5411215D01*
X4291584Y5407913D01*
X4295140Y5397500D01*
X4295140Y5363463D01*
X3873500Y4976876D02*
G01*
X3880358Y4980431D01*
X3890518Y4990592D01*
X3890518Y4918963D01*
X3930141Y4990592D02*
G01*
X3919981Y4987289D01*
X3916425Y4980431D01*
X3916425Y4973573D01*
X3919981Y4966715D01*
X3926586Y4963413D01*
X3940302Y4959857D01*
X3950461Y4956555D01*
X3957320Y4949697D01*
X3960875Y4942839D01*
X3960875Y4932679D01*
X3957320Y4925821D01*
X3954018Y4922520D01*
X3943604Y4918963D01*
X3930141Y4918963D01*
X3919981Y4922520D01*
X3916425Y4925821D01*
X3913124Y4932679D01*
X3913124Y4942839D01*
X3916425Y4949697D01*
X3923284Y4956555D01*
X3933443Y4959857D01*
X3947159Y4963413D01*
X3954018Y4966715D01*
X3957320Y4973573D01*
X3957320Y4980431D01*
X3954018Y4987289D01*
X3943604Y4990592D01*
X3930141Y4990592D01*
X4003802Y4990592D02*
G01*
X3993388Y4987289D01*
X3986784Y4976876D01*
X3983227Y4959857D01*
X3983227Y4949697D01*
X3986784Y4932679D01*
X3993388Y4922520D01*
X4003802Y4918963D01*
X4010659Y4918963D01*
X4020820Y4922520D01*
X4027677Y4932679D01*
X4030979Y4949697D01*
X4030979Y4959857D01*
X4027677Y4976876D01*
X4020820Y4987289D01*
X4010659Y4990592D01*
X4003802Y4990592D01*
X4122927Y4966715D02*
G01*
X4116324Y4963413D01*
X4109465Y4956555D01*
X4105909Y4946142D01*
X4105909Y4939537D01*
X4109465Y4929123D01*
X4116324Y4922520D01*
X4122927Y4918963D01*
X4133341Y4918963D01*
X4140200Y4922520D01*
X4146804Y4929123D01*
X4150359Y4939537D01*
X4150359Y4946142D01*
X4146804Y4956555D01*
X4140200Y4963413D01*
X4133341Y4966715D01*
X4122927Y4966715D01*
X4172711Y4990592D02*
G01*
X4172711Y4918963D01*
X4172711Y4953000D02*
G01*
X4183125Y4963413D01*
X4189984Y4966715D01*
X4200143Y4966715D01*
X4207002Y4963413D01*
X4210304Y4953000D01*
X4210304Y4918963D01*
X4232909Y4966715D02*
G01*
X4232909Y4918963D01*
X4232909Y4953000D02*
G01*
X4243070Y4963413D01*
X4249927Y4966715D01*
X4260088Y4966715D01*
X4266945Y4963413D01*
X4270247Y4953000D01*
X4270247Y4918963D01*
X4270247Y4953000D02*
G01*
X4280661Y4963413D01*
X4287265Y4966715D01*
X4297679Y4966715D01*
X4304284Y4963413D01*
X4307840Y4953000D01*
X4307840Y4918963D01*
X3752088Y8200897D02*
G01*
X3752088Y8037321D01*
X3670300Y8119110D02*
G01*
X3833875Y8119110D01*
D12*
X3184906Y7008876D02*
G01*
X3302812Y7008876D01*
X3302812Y7008876D02*
G01*
X3302812Y7038339D01*
X3908679Y7644206D01*
X4051300Y7644206D01*
X3733800Y6451600D02*
G01*
X3733800Y6959600D01*
X3911600Y7137400D01*
X4364812Y3568700D02*
G01*
X4364812Y4335475D01*
X3825214Y4875072D01*
X3825214Y5864377D01*
X3956329Y5995492D01*
X4021658Y5995492D01*
X4130446Y6104280D01*
X4130446Y6308953D01*
X3987800Y6451600D01*
X3184906Y6754876D02*
G01*
X3184906Y6636969D01*
X4114800Y3568700D02*
G01*
X4114800Y3892880D01*
X3302812Y4704867D01*
X3302812Y6519062D01*
X3184906Y6636969D01*
X4051300Y8129193D02*
G01*
X3933393Y8129193D01*
X3184906Y7901762D02*
G01*
X3764915Y7901762D01*
X3933393Y8070240D01*
X3933393Y8129193D01*
X4051300Y8129193D02*
G01*
X4169232Y8129193D01*
X4617110Y4965700D02*
G01*
X4356125Y5226685D01*
X4356125Y5888634D01*
X4189907Y6054852D01*
X4189907Y8108518D01*
X4169232Y8129193D01*
X4394200Y6451600D02*
G01*
X4394200Y6959600D01*
X4572000Y7137400D01*
X4629810Y5397500D02*
G01*
X4770526Y5538215D01*
X4770526Y6238925D01*
X4656581Y6352870D01*
X4619929Y6352870D01*
X4521200Y6451600D01*
X3184906Y8154923D02*
G01*
X3184906Y8037017D01*
X3184906Y8037017D02*
G01*
X3096488Y8037017D01*
X3066821Y8007350D01*
X3066821Y6898182D01*
X3074212Y6890791D01*
X3286531Y6890791D01*
X3437813Y6739509D01*
X3437813Y4788585D01*
X3679799Y4546600D01*
X904494Y8154923D02*
G01*
X904494Y8037017D01*
X904494Y8037017D02*
G01*
X2958566Y5982944D01*
X2958566Y4754676D01*
X3166643Y4546600D01*
X3222599Y4546600D01*
X3692499Y4076700D01*
D13*
G01*
X4051325Y8129193D03*
G01*
X4051325Y7644206D03*
D14*
G01*
X3679799Y4546600D03*
G01*
X4549800Y4546600D03*
G01*
X3692499Y4076700D03*
G01*
X4562500Y4076700D03*
D15*
G01*
X3657600Y7137400D03*
D16*
G01*
X3911600Y7137400D03*
D15*
G01*
X4318000Y7137400D03*
D16*
G01*
X4572000Y7137400D03*
D17*
G01*
X3733800Y6451600D03*
D18*
G01*
X3860800Y6451600D03*
G01*
X3987800Y6451600D03*
D17*
G01*
X4394200Y6451600D03*
D18*
G01*
X4521200Y6451600D03*
G01*
X4648200Y6451600D03*
D19*
G01*
X3187700Y3911600D03*
G01*
X901700Y3911600D03*
G01*
X3187700Y5689600D03*
G01*
X3187700Y5435600D03*
G01*
X3187700Y5181600D03*
G01*
X3187700Y4927600D03*
G01*
X3187700Y4673600D03*
G01*
X3187700Y4419600D03*
G01*
X3187700Y4165600D03*
G01*
X901700Y5689600D03*
G01*
X901700Y5435600D03*
G01*
X901700Y5181600D03*
G01*
X901700Y4927600D03*
G01*
X901700Y4673600D03*
G01*
X901700Y4419600D03*
G01*
X901700Y4165600D03*
D20*
G01*
X904494Y8154923D03*
G01*
X904494Y6754876D03*
G01*
X3184906Y8154923D03*
G01*
X3184906Y6754876D03*
G01*
X3184906Y7901762D03*
G01*
X3184906Y7008876D03*
D21*
G01*
X3587089Y4965700D03*
G01*
X4617110Y4965700D03*
G01*
X3625189Y5816600D03*
G01*
X4655210Y5816600D03*
G01*
X3599789Y5397500D03*
G01*
X4629810Y5397500D03*
G01*
X4364786Y3568700D03*
G01*
X4114800Y3568700D03*
G01*
X3864813Y3568700D03*
M02*
